<svg width="114" height="110" viewBox="0 0 114 110" xmlns="http://www.w3.org/2000/svg" class="inline-E1_1" style="transform: rotate(-180deg);"><path fill-rule="evenodd" clip-rule="evenodd" d="M55.05 3.00834C55.366 3.00279 55.6827 3 56 3C56.3173 3 56.634 3.00279 56.95 3.00834C57.5022 3.01804 57.9577 2.57826 57.9674 2.02606C57.9771 1.47386 57.5373 1.01835 56.9851 1.00865C56.6574 1.00289 56.329 1 56 1C55.671 1 55.3426 1.00289 55.0149 1.00865C54.4627 1.01835 54.0229 1.47386 54.0326 2.02606C54.0423 2.57826 54.4978 3.01804 55.05 3.00834ZM62.8576 1.42346C62.3096 1.35528 61.81 1.7443 61.7418 2.29236C61.6736 2.84042 62.0627 3.33998 62.6107 3.40816C63.2381 3.48621 63.8621 3.57522 64.4825 3.675C65.0277 3.7627 65.5409 3.39176 65.6286 2.84648C65.7163 2.3012 65.3453 1.78807 64.8001 1.70037C64.1562 1.59682 63.5087 1.50445 62.8576 1.42346ZM49.3893 3.40816C49.9373 3.33998 50.3264 2.84042 50.2582 2.29237C50.19 1.7443 49.6904 1.35528 49.1424 1.42346C48.4913 1.50445 47.8438 1.59682 47.1999 1.70037C46.6547 1.78807 46.2837 2.3012 46.3714 2.84648C46.4591 3.39176 46.9723 3.7627 47.5175 3.675C48.1379 3.57522 48.7619 3.48621 49.3893 3.40816ZM70.556 2.94703C70.0233 2.80121 69.4733 3.11482 69.3275 3.64751C69.1816 4.18019 69.4953 4.73024 70.0279 4.87606C70.6371 5.04282 71.2419 5.22017 71.8421 5.40791C72.3692 5.5728 72.9301 5.27916 73.095 4.75206C73.2599 4.22496 72.9663 3.664 72.4392 3.49912C71.8161 3.30424 71.1883 3.12013 70.556 2.94703ZM41.9721 4.87606C42.5047 4.73024 42.8184 4.18019 42.6725 3.64751C42.5267 3.11483 41.9767 2.80121 41.444 2.94703C40.8116 3.12014 40.1839 3.30424 39.5608 3.49913C39.0337 3.66401 38.7401 4.22496 38.905 4.75206C39.0699 5.27916 39.6308 5.5728 40.1579 5.40792C40.7581 5.22018 41.3629 5.04282 41.9721 4.87606ZM77.9574 5.55817C77.4511 5.33749 76.8618 5.569 76.6411 6.07528C76.4204 6.58156 76.652 7.17088 77.1582 7.39156C77.737 7.64385 78.3104 7.90618 78.8783 8.17833C79.3763 8.41703 79.9735 8.2068 80.2122 7.70877C80.4509 7.21073 80.2407 6.61349 79.7427 6.37479C79.1533 6.09232 78.5582 5.82004 77.9574 5.55817ZM34.8417 7.39157C35.348 7.17088 35.5795 6.58157 35.3589 6.07529C35.1382 5.56901 34.5488 5.33749 34.0426 5.55818C33.4418 5.82005 32.8467 6.09233 32.2573 6.37479C31.7593 6.61349 31.5491 7.21074 31.7878 7.70877C32.0265 8.20681 32.6237 8.41704 33.1217 8.17834C33.6896 7.90619 34.263 7.64386 34.8417 7.39157ZM84.9088 9.20146C84.4392 8.91077 83.8229 9.05581 83.5322 9.5254C83.2415 9.995 83.3865 10.6113 83.8561 10.902C84.3928 11.2342 84.9232 11.5758 85.4469 11.9264C85.9059 12.2337 86.527 12.1107 86.8342 11.6518C87.1415 11.1929 87.0185 10.5717 86.5596 10.2645C86.0161 9.90065 85.4658 9.54622 84.9088 9.20146ZM28.1439 10.902C28.6135 10.6113 28.7585 9.995 28.4678 9.52541C28.1771 9.05581 27.5608 8.91078 27.0912 9.20147C26.5342 9.54623 25.9839 9.90066 25.4404 10.2645C24.9815 10.5718 24.8585 11.1929 25.1658 11.6518C25.473 12.1107 26.0941 12.2337 26.5531 11.9264C27.0768 11.5758 27.6072 11.2342 28.1439 10.902ZM91.2705 13.7965C90.8469 13.4421 90.2163 13.4983 89.8619 13.9218C89.5075 14.3454 89.5636 14.9761 89.9872 15.3305C90.4712 15.7354 90.9478 16.1488 91.4169 16.5704C91.8276 16.9396 92.4599 16.9059 92.8291 16.4951C93.1983 16.0844 93.1646 15.4521 92.7539 15.0829C92.2672 14.6455 91.7727 14.2166 91.2705 13.7965ZM22.0128 15.3305C22.4364 14.9761 22.4925 14.3455 22.1381 13.9219C21.7837 13.4983 21.1531 13.4422 20.7295 13.7965C20.2273 14.2166 19.7328 14.6455 19.2461 15.0829C18.8354 15.4521 18.8017 16.0844 19.1709 16.4951C19.5401 16.9059 20.1724 16.9396 20.5831 16.5704C21.0522 16.1488 21.5288 15.7354 22.0128 15.3305ZM96.9171 19.2461C96.5479 18.8354 95.9156 18.8017 95.5049 19.1709C95.0941 19.5401 95.0604 20.1724 95.4296 20.5831C95.8512 21.0522 96.2646 21.5288 96.6695 22.0128C97.0239 22.4364 97.6545 22.4925 98.0781 22.1381C98.5017 21.7837 98.5578 21.1531 98.2035 20.7295C97.7834 20.2273 97.3545 19.7328 96.9171 19.2461ZM16.5704 20.5831C16.9396 20.1724 16.9059 19.5401 16.4951 19.1709C16.0844 18.8017 15.4521 18.8354 15.0829 19.2462C14.6455 19.7328 14.2166 20.2273 13.7965 20.7295C13.4421 21.1531 13.4983 21.7837 13.9218 22.1381C14.3454 22.4925 14.9761 22.4364 15.3305 22.0128C15.7354 21.5288 16.1488 21.0522 16.5704 20.5831ZM101.735 25.4404C101.428 24.9815 100.807 24.8585 100.348 25.1658C99.8893 25.473 99.7663 26.0941 100.074 26.5531C100.424 27.0768 100.766 27.6072 101.098 28.1439C101.389 28.6135 102.005 28.7585 102.475 28.4678C102.944 28.1771 103.089 27.5608 102.799 27.0912C102.454 26.5342 102.099 25.9839 101.735 25.4404ZM11.9264 26.5531C12.2337 26.0941 12.1107 25.473 11.6518 25.1658C11.1929 24.8585 10.5717 24.9815 10.2645 25.4404C9.90065 25.9839 9.54622 26.5342 9.20146 27.0912C8.91077 27.5608 9.05581 28.1771 9.5254 28.4678C9.99499 28.7585 10.6113 28.6135 10.902 28.1439C11.2342 27.6072 11.5758 27.0768 11.9264 26.5531ZM105.625 32.2573C105.387 31.7593 104.789 31.5491 104.291 31.7878C103.793 32.0265 103.583 32.6237 103.822 33.1217C104.094 33.6896 104.356 34.263 104.608 34.8417C104.829 35.348 105.418 35.5795 105.925 35.3589C106.431 35.1382 106.663 34.5488 106.442 34.0426C106.18 33.4418 105.908 32.8467 105.625 32.2573ZM8.17833 33.1218C8.41703 32.6237 8.2068 32.0265 7.70877 31.7878C7.21073 31.5491 6.61349 31.7593 6.37478 32.2573C6.09232 32.8467 5.82004 33.4418 5.55817 34.0426C5.33749 34.5489 5.569 35.1382 6.07528 35.3589C6.58156 35.5796 7.17088 35.348 7.39156 34.8418C7.64385 34.263 7.90618 33.6896 8.17833 33.1218ZM108.501 39.5608C108.336 39.0337 107.775 38.7401 107.248 38.905C106.721 39.0699 106.427 39.6308 106.592 40.1579C106.78 40.7581 106.957 41.3629 107.124 41.9721C107.27 42.5047 107.82 42.8184 108.352 42.6725C108.885 42.5267 109.199 41.9767 109.053 41.444C108.88 40.8116 108.696 40.1839 108.501 39.5608ZM5.40792 40.1579C5.57279 39.6308 5.27916 39.0699 4.75206 38.905C4.22496 38.7401 3.664 39.0337 3.49912 39.5608C3.30424 40.1839 3.12013 40.8117 2.94703 41.444C2.80121 41.9767 3.11482 42.5267 3.64751 42.6725C4.18019 42.8184 4.73023 42.5047 4.87606 41.9721C5.04282 41.3629 5.22017 40.7581 5.40792 40.1579ZM110.3 47.1999C110.212 46.6547 109.699 46.2837 109.154 46.3714C108.608 46.4591 108.237 46.9723 108.325 47.5175C108.425 48.1379 108.514 48.7619 108.592 49.3893C108.66 49.9373 109.16 50.3264 109.708 50.2582C110.256 50.19 110.645 49.6904 110.577 49.1424C110.496 48.4913 110.403 47.8438 110.3 47.1999ZM3.675 47.5175C3.7627 46.9723 3.39176 46.4591 2.84648 46.3714C2.3012 46.2837 1.78807 46.6547 1.70037 47.1999C1.59682 47.8438 1.50445 48.4913 1.42346 49.1424C1.35528 49.6904 1.7443 50.19 2.29236 50.2582C2.84042 50.3264 3.33998 49.9373 3.40816 49.3893C3.48621 48.7619 3.57522 48.1379 3.675 47.5175ZM109.029 54.761C109.136 54.3241 109.53 54 110 54C110.552 54 111 54.4477 111 55C111 55.1668 110.999 55.3335 110.998 55.5C110.999 55.6665 111 55.8332 111 56C111 56.5523 110.552 57 110 57C109.53 57 109.136 56.6759 109.029 56.239C109.003 56.1472 108.99 56.0502 108.992 55.95C108.994 55.8001 108.996 55.6501 108.998 55.5C108.996 55.3499 108.994 55.1999 108.992 55.05C108.99 54.9498 109.003 54.8528 109.029 54.761ZM1.00223 55.5C1.00074 55.3335 1 55.1668 1 55C1 54.4477 1.44772 54 2 54C2.47031 54 2.86479 54.3247 2.97153 54.7621C2.99716 54.8535 3.01009 54.9502 3.00834 55.05C3.00571 55.1999 3.0037 55.3499 3.00231 55.5C3.0037 55.6501 3.00571 55.8001 3.00834 55.95C3.01009 56.0498 2.99716 56.1465 2.97153 56.2379C2.86479 56.6753 2.47031 57 2 57C1.44772 57 1 56.5523 1 56C1 55.8332 1.00074 55.6665 1.00223 55.5ZM55.05 107.992C55.366 107.997 55.6827 108 56 108C56.3173 108 56.634 107.997 56.95 107.992C57.5022 107.982 57.9577 108.422 57.9674 108.974C57.9771 109.526 57.5373 109.982 56.9851 109.991C56.6574 109.997 56.329 110 56 110C55.671 110 55.3426 109.997 55.0149 109.991C54.4627 109.982 54.0229 109.526 54.0326 108.974C54.0423 108.422 54.4978 107.982 55.05 107.992ZM62.8576 109.577C62.3096 109.645 61.81 109.256 61.7418 108.708C61.6736 108.16 62.0627 107.66 62.6107 107.592C63.2381 107.514 63.8621 107.425 64.4825 107.325C65.0277 107.237 65.5409 107.608 65.6286 108.154C65.7163 108.699 65.3453 109.212 64.8001 109.3C64.1562 109.403 63.5087 109.496 62.8576 109.577ZM49.3893 107.592C49.9373 107.66 50.3264 108.16 50.2582 108.708C50.19 109.256 49.6904 109.645 49.1424 109.577C48.4913 109.496 47.8438 109.403 47.1999 109.3C46.6547 109.212 46.2837 108.699 46.3714 108.154C46.4591 107.608 46.9723 107.237 47.5175 107.325C48.1379 107.425 48.7619 107.514 49.3893 107.592ZM70.556 108.053C70.0233 108.199 69.4733 107.885 69.3275 107.352C69.1816 106.82 69.4953 106.27 70.0279 106.124C70.6371 105.957 71.2419 105.78 71.8421 105.592C72.3692 105.427 72.9301 105.721 73.095 106.248C73.2599 106.775 72.9663 107.336 72.4392 107.501C71.8161 107.696 71.1883 107.88 70.556 108.053ZM41.9721 106.124C42.5047 106.27 42.8184 106.82 42.6725 107.352C42.5267 107.885 41.9767 108.199 41.444 108.053C40.8116 107.88 40.1839 107.696 39.5608 107.501C39.0337 107.336 38.7401 106.775 38.905 106.248C39.0699 105.721 39.6308 105.427 40.1579 105.592C40.7581 105.78 41.3629 105.957 41.9721 106.124ZM77.9574 105.442C77.4511 105.663 76.8618 105.431 76.6411 104.925C76.4204 104.418 76.652 103.829 77.1582 103.608C77.737 103.356 78.3104 103.094 78.8783 102.822C79.3763 102.583 79.9735 102.793 80.2122 103.291C80.4509 103.789 80.2407 104.387 79.7427 104.625C79.1533 104.908 78.5582 105.18 77.9574 105.442ZM34.8417 103.608C35.348 103.829 35.5795 104.418 35.3589 104.925C35.1382 105.431 34.5488 105.663 34.0426 105.442C33.4418 105.18 32.8467 104.908 32.2573 104.625C31.7593 104.387 31.5491 103.789 31.7878 103.291C32.0265 102.793 32.6237 102.583 33.1217 102.822C33.6896 103.094 34.263 103.356 34.8417 103.608ZM84.9088 101.799C84.4392 102.089 83.8229 101.944 83.5322 101.475C83.2415 101.005 83.3865 100.389 83.8561 100.098C84.3928 99.7658 84.9232 99.4242 85.4469 99.0736C85.9059 98.7663 86.527 98.8893 86.8342 99.3482C87.1415 99.8071 87.0185 100.428 86.5596 100.736C86.0161 101.099 85.4658 101.454 84.9088 101.799ZM28.1439 100.098C28.6135 100.389 28.7585 101.005 28.4678 101.475C28.1771 101.944 27.5608 102.089 27.0912 101.799C26.5342 101.454 25.9839 101.099 25.4404 100.735C24.9815 100.428 24.8585 99.8071 25.1658 99.3482C25.473 98.8893 26.0941 98.7663 26.5531 99.0736C27.0768 99.4242 27.6072 99.7658 28.1439 100.098ZM91.2705 97.2035C90.8469 97.5579 90.2163 97.5017 89.8619 97.0782C89.5075 96.6546 89.5636 96.0239 89.9872 95.6695C90.4712 95.2646 90.9478 94.8512 91.4169 94.4296C91.8276 94.0604 92.4599 94.0941 92.8291 94.5049C93.1983 94.9156 93.1646 95.5479 92.7539 95.9171C92.2672 96.3545 91.7727 96.7834 91.2705 97.2035ZM22.0128 95.6695C22.4364 96.0239 22.4925 96.6545 22.1381 97.0781C21.7837 97.5017 21.1531 97.5578 20.7295 97.2035C20.2273 96.7834 19.7328 96.3545 19.2461 95.9171C18.8354 95.5479 18.8017 94.9156 19.1709 94.5049C19.5401 94.0941 20.1724 94.0604 20.5831 94.4296C21.0522 94.8512 21.5288 95.2646 22.0128 95.6695ZM96.9171 91.7539C96.5479 92.1646 95.9156 92.1983 95.5049 91.8291C95.0941 91.4599 95.0604 90.8276 95.4296 90.4169C95.8512 89.9478 96.2646 89.4712 96.6695 88.9872C97.0239 88.5636 97.6545 88.5075 98.0781 88.8619C98.5017 89.2163 98.5578 89.8469 98.2035 90.2705C97.7834 90.7727 97.3545 91.2672 96.9171 91.7539ZM16.5704 90.4169C16.9396 90.8276 16.9059 91.4599 16.4951 91.8291C16.0844 92.1983 15.4521 92.1646 15.0829 91.7538C14.6455 91.2672 14.2166 90.7727 13.7965 90.2705C13.4421 89.8469 13.4983 89.2163 13.9218 88.8619C14.3454 88.5075 14.9761 88.5636 15.3305 88.9872C15.7354 89.4712 16.1488 89.9478 16.5704 90.4169ZM101.735 85.5596C101.428 86.0185 100.807 86.1415 100.348 85.8342C99.8893 85.527 99.7663 84.9059 100.074 84.4469C100.424 83.9232 100.766 83.3928 101.098 82.8561C101.389 82.3865 102.005 82.2415 102.475 82.5322C102.944 82.8229 103.089 83.4392 102.799 83.9088C102.454 84.4658 102.099 85.0161 101.735 85.5596ZM11.9264 84.4469C12.2337 84.9059 12.1107 85.527 11.6518 85.8342C11.1929 86.1415 10.5717 86.0185 10.2645 85.5596C9.90065 85.0161 9.54622 84.4658 9.20146 83.9088C8.91077 83.4392 9.05581 82.8229 9.5254 82.5322C9.99499 82.2415 10.6113 82.3865 10.902 82.8561C11.2342 83.3928 11.5758 83.9232 11.9264 84.4469ZM105.625 78.7427C105.387 79.2407 104.789 79.4509 104.291 79.2122C103.793 78.9735 103.583 78.3763 103.822 77.8783C104.094 77.3104 104.356 76.737 104.608 76.1583C104.829 75.652 105.418 75.4205 105.925 75.6411C106.431 75.8618 106.663 76.4512 106.442 76.9574C106.18 77.5582 105.908 78.1533 105.625 78.7427ZM8.17833 77.8782C8.41703 78.3763 8.2068 78.9735 7.70877 79.2122C7.21073 79.4509 6.61349 79.2407 6.37478 78.7427C6.09232 78.1533 5.82004 77.5582 5.55817 76.9574C5.33749 76.4511 5.569 75.8618 6.07528 75.6411C6.58156 75.4204 7.17088 75.652 7.39156 76.1582C7.64385 76.737 7.90618 77.3104 8.17833 77.8782ZM108.501 71.4392C108.336 71.9663 107.775 72.2599 107.248 72.095C106.721 71.9301 106.427 71.3692 106.592 70.8421C106.78 70.2419 106.957 69.6371 107.124 69.0279C107.27 68.4953 107.82 68.1816 108.352 68.3275C108.885 68.4733 109.199 69.0233 109.053 69.556C108.88 70.1884 108.696 70.8161 108.501 71.4392ZM5.40792 70.8421C5.57279 71.3692 5.27916 71.9301 4.75206 72.095C4.22496 72.2599 3.664 71.9663 3.49912 71.4392C3.30424 70.8161 3.12013 70.1883 2.94703 69.556C2.80121 69.0233 3.11482 68.4733 3.64751 68.3275C4.18019 68.1816 4.73023 68.4953 4.87606 69.0279C5.04282 69.6371 5.22017 70.2419 5.40792 70.8421ZM110.3 63.8001C110.212 64.3453 109.699 64.7163 109.154 64.6286C108.608 64.5409 108.237 64.0277 108.325 63.4825C108.425 62.8621 108.514 62.2381 108.592 61.6107C108.66 61.0627 109.16 60.6736 109.708 60.7418C110.256 60.81 110.645 61.3096 110.577 61.8576C110.496 62.5087 110.403 63.1562 110.3 63.8001ZM3.675 63.4825C3.7627 64.0277 3.39176 64.5409 2.84648 64.6286C2.3012 64.7163 1.78807 64.3453 1.70037 63.8001C1.59682 63.1562 1.50445 62.5087 1.42346 61.8576C1.35528 61.3096 1.7443 60.81 2.29236 60.7418C2.84042 60.6736 3.33998 61.0627 3.40816 61.6107C3.48621 62.2381 3.57522 62.8621 3.675 63.4825Z" fill="white" fill-opacity="0.5"></path><mask id="svgM_sunRaslidyv1_0" mask-type="alpha" maskUnits="userSpaceOnUse" x="0" y="0" width="112" height="56"><rect width="112" height="56" fill="#FEC80A"></rect></mask><g mask="url(#svgM_sunRaslidyv1_0)"><path d="M110 56C110 26.1766 85.8234 2 56 2C26.1766 2 2 26.1766 2 56" fill="none" stroke="#FEC80A" stroke-width="3" stroke-linecap="round"></path></g><circle cx="110" cy="56" r="4" fill="white"></circle></svg>