<svg width="64" height="64" viewBox="0 0 64 64" fill="none" xmlns="http://www.w3.org/2000/svg">
    <path fill-rule="evenodd" clip-rule="evenodd" d="M31.8441 5.94092C32.6725 5.94092 33.3441 6.61249 33.3441 7.44092V14.7431L36.307 11.8181C36.8966 11.2362 37.8463 11.2423 38.4283 11.8319C39.0103 12.4214 39.0042 13.3712 38.4146 13.9531L33.3441 18.9585V29.3474L42.491 24.1347L44.3494 17.2883C44.5651 16.4933 45.3919 16.0257 46.1959 16.2439C46.9999 16.4621 47.4767 17.2834 47.2609 18.0784L46.1891 22.0273L52.5887 18.3803C53.3084 17.9701 54.231 18.2173 54.6493 18.9324C55.0675 19.6474 54.8231 20.5596 54.1034 20.9698L47.7057 24.6157L51.7032 25.6731C52.5086 25.8861 52.9908 26.7044 52.7802 27.5008C52.5697 28.2972 51.746 28.77 50.9407 28.557L44.0076 26.7232L34.8827 31.9232L44.0123 37.126L50.9457 35.292C51.7511 35.079 52.5747 35.5519 52.7853 36.3482C52.9958 37.1446 52.5137 37.9629 51.7083 38.1759L47.7104 39.2334L54.1024 42.8761C54.8222 43.2863 55.0666 44.1985 54.6483 44.9135C54.23 45.6286 53.3075 45.8758 52.5877 45.4656L46.1942 41.8221L47.266 45.7706C47.4818 46.5656 47.0049 47.3869 46.2009 47.6051C45.3969 47.8233 44.5702 47.3557 44.3544 46.5607L42.4961 39.7146L33.3441 34.4991V44.9285L38.4146 49.9339C39.0042 50.5159 39.0103 51.4656 38.4283 52.0552C37.8463 52.6447 36.8966 52.6509 36.307 52.0689L33.3441 49.144V56.446C33.3441 57.2744 32.6725 57.946 31.8441 57.946C31.0156 57.946 30.3441 57.2744 30.3441 56.446V49.1447L27.3818 52.0689C26.7922 52.6509 25.8425 52.6447 25.2605 52.0552C24.6785 51.4656 24.6847 50.5159 25.2742 49.9339L30.3441 44.9292V34.5097L21.1961 39.7229L19.3388 46.5657C19.123 47.3607 18.2963 47.8282 17.4923 47.6101C16.6883 47.3919 16.2114 46.5706 16.4272 45.7756L17.4981 41.8304L11.1062 45.473C10.3864 45.8831 9.46388 45.636 9.04561 44.9209C8.62734 44.2058 8.87175 43.2936 9.5915 42.8834L15.9862 39.2392L11.9849 38.1809C11.1795 37.9678 10.6973 37.1496 10.9079 36.3532C11.1185 35.5568 11.9421 35.0839 12.7475 35.297L19.6842 37.1318L28.824 31.9232L19.6827 26.7138L12.7467 28.5484C11.9413 28.7614 11.1177 28.2885 10.9071 27.4922C10.6965 26.6958 11.1787 25.8775 11.9841 25.6645L15.9846 24.6063L9.59055 20.9625C8.87079 20.5523 8.62639 19.6401 9.04466 18.925C9.46292 18.21 10.3855 17.9628 11.1052 18.373L17.4975 22.0158L16.4264 18.0698C16.2106 17.2748 16.6875 16.4535 17.4915 16.2353C18.2955 16.0171 19.1222 16.4847 19.338 17.2797L21.1956 24.1232L30.3441 29.3367V18.9578L25.2742 13.9531C24.6847 13.3712 24.6785 12.4214 25.2605 11.8319C25.8425 11.2423 26.7922 11.2362 27.3818 11.8181L30.3441 14.7424V7.44092C30.3441 6.61249 31.0156 5.94092 31.8441 5.94092Z" fill="url(#paint0_linear_4339_260191)"></path>
    <defs>
        <linearGradient id="paint0_linear_4339_260191" x1="31.847" y1="5.94092" x2="31.847" y2="57.946" gradientUnits="userSpaceOnUse">
            <stop stop-color="#0097D9"></stop>
            <stop offset="1" stop-color="#28AFEA"></stop>
        </linearGradient>
    </defs>
</svg>