<svg width="72" height="194" viewBox="0 0 72 194" fill="none" xmlns="http://www.w3.org/2000/svg">
<path d="M35.5 20.2778C35.7761 20.2778 36 20.054 36 19.7778C36 19.5017 35.7761 19.2778 35.5 19.2778V20.2778ZM34.5139 19.2778C34.2377 19.2778 34.0139 19.5017 34.0139 19.7778C34.0139 20.054 34.2377 20.2778 34.5139 20.2778V19.2778ZM32.5417 20.2778C32.8178 20.2778 33.0417 20.054 33.0417 19.7778C33.0417 19.5017 32.8178 19.2778 32.5417 19.2778V20.2778ZM30.5694 19.2778C30.2933 19.2778 30.0694 19.5017 30.0694 19.7778C30.0694 20.054 30.2933 20.2778 30.5694 20.2778V19.2778ZM28.5972 20.2778C28.8734 20.2778 29.0972 20.054 29.0972 19.7778C29.0972 19.5017 28.8734 19.2778 28.5972 19.2778V20.2778ZM26.625 19.2778C26.3489 19.2778 26.125 19.5017 26.125 19.7778C26.125 20.054 26.3489 20.2778 26.625 20.2778V19.2778ZM24.6528 20.2778C24.9289 20.2778 25.1528 20.054 25.1528 19.7778C25.1528 19.5017 24.9289 19.2778 24.6528 19.2778V20.2778ZM22.6806 19.2778C22.4044 19.2778 22.1806 19.5017 22.1806 19.7778C22.1806 20.054 22.4044 20.2778 22.6806 20.2778V19.2778ZM20.7083 20.2778C20.9845 20.2778 21.2083 20.054 21.2083 19.7778C21.2083 19.5017 20.9845 19.2778 20.7083 19.2778V20.2778ZM18.7361 19.2778C18.46 19.2778 18.2361 19.5017 18.2361 19.7778C18.2361 20.054 18.46 20.2778 18.7361 20.2778V19.2778ZM16.7639 20.2778C17.04 20.2778 17.2639 20.054 17.2639 19.7778C17.2639 19.5017 17.04 19.2778 16.7639 19.2778V20.2778ZM14.7917 19.2778C14.5155 19.2778 14.2917 19.5017 14.2917 19.7778C14.2917 20.054 14.5155 20.2778 14.7917 20.2778V19.2778ZM12.8194 20.2778C13.0956 20.2778 13.3194 20.054 13.3194 19.7778C13.3194 19.5017 13.0956 19.2778 12.8194 19.2778V20.2778ZM10.8472 19.2778C10.5711 19.2778 10.3472 19.5017 10.3472 19.7778C10.3472 20.054 10.5711 20.2778 10.8472 20.2778V19.2778ZM8.875 20.2778C9.15115 20.2778 9.375 20.054 9.375 19.7778C9.375 19.5017 9.15115 19.2778 8.875 19.2778V20.2778ZM6.90278 19.2778C6.62664 19.2778 6.40278 19.5017 6.40278 19.7778C6.40278 20.054 6.62664 20.2778 6.90278 20.2778V19.2778ZM4.93056 20.2778C5.2067 20.2778 5.43056 20.054 5.43056 19.7778C5.43056 19.5017 5.2067 19.2778 4.93056 19.2778V20.2778ZM2.95834 19.2778C2.6822 19.2778 2.45834 19.5017 2.45834 19.7778C2.45834 20.054 2.6822 20.2778 2.95834 20.2778V19.2778ZM0.986118 20.2778C1.26226 20.2778 1.48612 20.054 1.48612 19.7778C1.48612 19.5017 1.26226 19.2778 0.986118 19.2778V20.2778ZM35.5 19.2778H34.5139V20.2778H35.5V19.2778ZM32.5417 19.2778H30.5694V20.2778H32.5417V19.2778ZM28.5972 19.2778H26.625V20.2778H28.5972V19.2778ZM24.6528 19.2778H22.6806V20.2778H24.6528V19.2778ZM20.7083 19.2778H18.7361V20.2778H20.7083V19.2778ZM16.7639 19.2778H14.7917V20.2778H16.7639V19.2778ZM12.8194 19.2778H10.8472V20.2778H12.8194V19.2778ZM8.875 19.2778H6.90278V20.2778H8.875V19.2778ZM4.93056 19.2778H2.95834V20.2778H4.93056V19.2778ZM0.986118 19.2778H0V20.2778H0.986118V19.2778Z" fill="white" fill-opacity="0.3"/>
<path d="M71 43.9446C71.2761 43.9446 71.5 43.7207 71.5 43.4446C71.5 43.1684 71.2761 42.9446 71 42.9446V43.9446ZM70.0139 42.9446C69.7377 42.9446 69.5139 43.1684 69.5139 43.4446C69.5139 43.7207 69.7377 43.9446 70.0139 43.9446V42.9446ZM68.0417 43.9446C68.3178 43.9446 68.5417 43.7207 68.5417 43.4446C68.5417 43.1684 68.3178 42.9446 68.0417 42.9446V43.9446ZM66.0694 42.9446C65.7933 42.9446 65.5694 43.1684 65.5694 43.4446C65.5694 43.7207 65.7933 43.9446 66.0694 43.9446V42.9446ZM64.0972 43.9446C64.3734 43.9446 64.5972 43.7207 64.5972 43.4446C64.5972 43.1684 64.3734 42.9446 64.0972 42.9446V43.9446ZM62.125 42.9446C61.8489 42.9446 61.625 43.1684 61.625 43.4446C61.625 43.7207 61.8489 43.9446 62.125 43.9446V42.9446ZM60.1528 43.9446C60.4289 43.9446 60.6528 43.7207 60.6528 43.4446C60.6528 43.1684 60.4289 42.9446 60.1528 42.9446V43.9446ZM58.1806 42.9446C57.9044 42.9446 57.6806 43.1684 57.6806 43.4446C57.6806 43.7207 57.9044 43.9446 58.1806 43.9446V42.9446ZM56.2083 43.9446C56.4845 43.9446 56.7083 43.7207 56.7083 43.4446C56.7083 43.1684 56.4845 42.9446 56.2083 42.9446V43.9446ZM54.2361 42.9446C53.96 42.9446 53.7361 43.1684 53.7361 43.4446C53.7361 43.7207 53.96 43.9446 54.2361 43.9446V42.9446ZM52.2639 43.9446C52.54 43.9446 52.7639 43.7207 52.7639 43.4446C52.7639 43.1684 52.54 42.9446 52.2639 42.9446V43.9446ZM50.2917 42.9446C50.0155 42.9446 49.7917 43.1684 49.7917 43.4446C49.7917 43.7207 50.0155 43.9446 50.2917 43.9446V42.9446ZM48.3194 43.9446C48.5956 43.9446 48.8194 43.7207 48.8194 43.4446C48.8194 43.1684 48.5956 42.9446 48.3194 42.9446V43.9446ZM46.3472 42.9446C46.0711 42.9446 45.8472 43.1684 45.8472 43.4446C45.8472 43.7207 46.0711 43.9446 46.3472 43.9446V42.9446ZM44.375 43.9446C44.6511 43.9446 44.875 43.7207 44.875 43.4446C44.875 43.1684 44.6511 42.9446 44.375 42.9446V43.9446ZM42.4028 42.9446C42.1266 42.9446 41.9028 43.1684 41.9028 43.4446C41.9028 43.7207 42.1266 43.9446 42.4028 43.9446V42.9446ZM40.4306 43.9446C40.7067 43.9446 40.9306 43.7207 40.9306 43.4446C40.9306 43.1684 40.7067 42.9446 40.4306 42.9446V43.9446ZM71 42.9446H70.0139V43.9446H71V42.9446ZM68.0417 42.9446H66.0694V43.9446H68.0417V42.9446ZM64.0972 42.9446H62.125V43.9446H64.0972V42.9446ZM60.1528 42.9446H58.1806V43.9446H60.1528V42.9446ZM56.2083 42.9446H54.2361V43.9446H56.2083V42.9446ZM52.2639 42.9446H50.2917V43.9446H52.2639V42.9446ZM48.3194 42.9446H46.3472V43.9446H48.3194V42.9446ZM44.375 42.9446H42.4028V43.9446H44.375V42.9446ZM40.4306 42.9446H39.4444V43.9446H40.4306V42.9446Z" fill="white" fill-opacity="0.3"/>
<path d="M71 109.028C71.2761 109.028 71.5 108.804 71.5 108.528C71.5 108.252 71.2761 108.028 71 108.028V109.028ZM70.0139 108.028C69.7377 108.028 69.5139 108.252 69.5139 108.528C69.5139 108.804 69.7377 109.028 70.0139 109.028V108.028ZM68.0417 109.028C68.3178 109.028 68.5417 108.804 68.5417 108.528C68.5417 108.252 68.3178 108.028 68.0417 108.028V109.028ZM66.0694 108.028C65.7933 108.028 65.5694 108.252 65.5694 108.528C65.5694 108.804 65.7933 109.028 66.0694 109.028V108.028ZM64.0972 109.028C64.3734 109.028 64.5972 108.804 64.5972 108.528C64.5972 108.252 64.3734 108.028 64.0972 108.028V109.028ZM62.125 108.028C61.8489 108.028 61.625 108.252 61.625 108.528C61.625 108.804 61.8489 109.028 62.125 109.028V108.028ZM60.1528 109.028C60.4289 109.028 60.6528 108.804 60.6528 108.528C60.6528 108.252 60.4289 108.028 60.1528 108.028V109.028ZM58.1806 108.028C57.9044 108.028 57.6806 108.252 57.6806 108.528C57.6806 108.804 57.9044 109.028 58.1806 109.028V108.028ZM56.2083 109.028C56.4845 109.028 56.7083 108.804 56.7083 108.528C56.7083 108.252 56.4845 108.028 56.2083 108.028V109.028ZM54.2361 108.028C53.96 108.028 53.7361 108.252 53.7361 108.528C53.7361 108.804 53.96 109.028 54.2361 109.028V108.028ZM52.2639 109.028C52.54 109.028 52.7639 108.804 52.7639 108.528C52.7639 108.252 52.54 108.028 52.2639 108.028V109.028ZM50.2917 108.028C50.0155 108.028 49.7917 108.252 49.7917 108.528C49.7917 108.804 50.0155 109.028 50.2917 109.028V108.028ZM48.3194 109.028C48.5956 109.028 48.8194 108.804 48.8194 108.528C48.8194 108.252 48.5956 108.028 48.3194 108.028V109.028ZM71 108.028H70.0139V109.028H71V108.028ZM68.0417 108.028H66.0694V109.028H68.0417V108.028ZM64.0972 108.028H62.125V109.028H64.0972V108.028ZM60.1528 108.028H58.1806V109.028H60.1528V108.028ZM56.2083 108.028H54.2361V109.028H56.2083V108.028ZM52.2639 108.028H50.2917V109.028H52.2639V108.028ZM48.3194 108.028H47.3333V109.028H48.3194V108.028Z" fill="white" fill-opacity="0.3"/>
<path d="M25.6406 132.695C25.9168 132.695 26.1406 132.471 26.1406 132.195C26.1406 131.918 25.9168 131.695 25.6406 131.695V132.695ZM24.5723 131.695C24.2962 131.695 24.0723 131.918 24.0723 132.195C24.0723 132.471 24.2962 132.695 24.5723 132.695V131.695ZM22.4358 132.695C22.7119 132.695 22.9358 132.471 22.9358 132.195C22.9358 131.918 22.7119 131.695 22.4358 131.695V132.695ZM20.2992 131.695C20.023 131.695 19.7992 131.918 19.7992 132.195C19.7992 132.471 20.023 132.695 20.2992 132.695V131.695ZM18.1626 132.695C18.4388 132.695 18.6626 132.471 18.6626 132.195C18.6626 131.918 18.4388 131.695 18.1626 131.695V132.695ZM16.026 131.695C15.7499 131.695 15.526 131.918 15.526 132.195C15.526 132.471 15.7499 132.695 16.026 132.695V131.695ZM13.8895 132.695C14.1656 132.695 14.3895 132.471 14.3895 132.195C14.3895 131.918 14.1656 131.695 13.8895 131.695V132.695ZM11.7529 131.695C11.4768 131.695 11.2529 131.918 11.2529 132.195C11.2529 132.471 11.4768 132.695 11.7529 132.695V131.695ZM9.61632 132.695C9.89246 132.695 10.1163 132.471 10.1163 132.195C10.1163 131.918 9.89246 131.695 9.61632 131.695V132.695ZM7.47975 131.695C7.2036 131.695 6.97975 131.918 6.97975 132.195C6.97975 132.471 7.2036 132.695 7.47975 132.695V131.695ZM5.34317 132.695C5.61931 132.695 5.84317 132.471 5.84317 132.195C5.84317 131.918 5.61931 131.695 5.34317 131.695V132.695ZM3.2066 131.695C2.93046 131.695 2.7066 131.918 2.7066 132.195C2.7066 132.471 2.93046 132.695 3.2066 132.695V131.695ZM1.07002 132.695C1.34617 132.695 1.57002 132.471 1.57002 132.195C1.57002 131.918 1.34617 131.695 1.07002 131.695V132.695ZM25.6406 131.695H24.5723V132.695H25.6406V131.695ZM22.4358 131.695H20.2992V132.695H22.4358V131.695ZM18.1626 131.695H16.026V132.695H18.1626V131.695ZM13.8895 131.695H11.7529V132.695H13.8895V131.695ZM9.61632 131.695H7.47975V132.695H9.61632V131.695ZM5.34317 131.695H3.2066V132.695H5.34317V131.695ZM1.07002 131.695H0.00173569V132.695H1.07002V131.695Z" fill="white" fill-opacity="0.3"/>
<g filter="url(#filter0_d_5101_78542)">
<path fill-rule="evenodd" clip-rule="evenodd" d="M47.3331 156.217C50.9646 159.467 53.25 164.191 53.25 169.448C53.25 179.251 45.3031 187.198 35.5 187.198C25.6969 187.198 17.75 179.251 17.75 169.448C17.75 164.191 20.0352 159.468 23.6665 156.218L23.6665 15.8333C23.6665 9.29791 28.9644 3.99994 35.4998 3.99994C42.0352 3.99994 47.3331 9.29791 47.3331 15.8333L47.3331 156.217Z" fill="#C2DBF2" fill-opacity="0.2"/>
<path fill-rule="evenodd" clip-rule="evenodd" d="M41.4178 156.971C46.0819 159.187 49.3064 163.941 49.3064 169.448C49.3064 177.072 43.1255 183.253 35.5009 183.253C27.8763 183.253 21.6953 177.072 21.6953 169.448C21.6953 163.94 24.9202 159.186 29.5846 156.971L29.5845 15.8334C29.5845 12.5657 32.2334 9.91673 35.5011 9.91673C38.7688 9.91673 41.4177 12.5657 41.4177 15.8334L41.4178 156.971Z" fill="url(#paint0_linear_5101_78542)"/>
</g>
<path d="M24.5469 32.5972H27.5269C27.8175 32.5972 28.053 32.8327 28.053 33.1233V34.9647C28.053 35.2553 27.8175 35.4908 27.5269 35.4908H24.5469V32.5972Z" fill="url(#paint1_linear_5101_78542)" fill-opacity="0.3"/>
<path d="M24.5469 59.1575H27.5269C27.8175 59.1575 28.053 59.393 28.053 59.6836V61.525C28.053 61.8156 27.8175 62.0511 27.5269 62.0511H24.5469V59.1575Z" fill="url(#paint2_linear_5101_78542)" fill-opacity="0.3"/>
<path d="M24.5469 85.7183H27.5269C27.8175 85.7183 28.053 85.9538 28.053 86.2444V88.0858C28.053 88.3764 27.8175 88.6119 27.5269 88.6119H24.5469V85.7183Z" fill="url(#paint3_linear_5101_78542)" fill-opacity="0.3"/>
<path d="M24.5469 112.279H27.5269C27.8175 112.279 28.053 112.514 28.053 112.805V114.646C28.053 114.937 27.8175 115.172 27.5269 115.172H24.5469V112.279Z" fill="url(#paint4_linear_5101_78542)" fill-opacity="0.3"/>
<path d="M24.5469 138.111H27.5269C27.8175 138.111 28.053 138.347 28.053 138.637V140.479C28.053 140.769 27.8175 141.005 27.5269 141.005H24.5469V138.111Z" fill="url(#paint5_linear_5101_78542)" fill-opacity="0.3"/>
<defs>
<filter id="filter0_d_5101_78542" x="11.75" y="-0.00012207" width="45.5" height="193.198" filterUnits="userSpaceOnUse" color-interpolation-filters="sRGB">
<feFlood flood-opacity="0" result="BackgroundImageFix"/>
<feColorMatrix in="SourceAlpha" type="matrix" values="0 0 0 0 0 0 0 0 0 0 0 0 0 0 0 0 0 0 127 0" result="hardAlpha"/>
<feOffset dx="-1" dy="1"/>
<feGaussianBlur stdDeviation="2.5"/>
<feComposite in2="hardAlpha" operator="out"/>
<feColorMatrix type="matrix" values="0 0 0 0 0 0 0 0 0 0 0 0 0 0 0 0 0 0 0.1 0"/>
<feBlend mode="normal" in2="BackgroundImageFix" result="effect1_dropShadow_5101_78542"/>
<feBlend mode="normal" in="SourceGraphic" in2="effect1_dropShadow_5101_78542" result="shape"/>
</filter>
<linearGradient id="paint0_linear_5101_78542" x1="22.001" y1="-0.500119" x2="60.001" y2="191.5" gradientUnits="userSpaceOnUse">
<stop stop-color="#3CCBF4"/>
<stop offset="1" stop-color="#148ADF"/>
</linearGradient>
<linearGradient id="paint1_linear_5101_78542" x1="24.6651" y1="33.1687" x2="36.8497" y2="33.1687" gradientUnits="userSpaceOnUse">
<stop stop-color="white" stop-opacity="0"/>
<stop offset="0.232154" stop-color="white"/>
</linearGradient>
<linearGradient id="paint2_linear_5101_78542" x1="24.6651" y1="59.729" x2="36.8497" y2="59.729" gradientUnits="userSpaceOnUse">
<stop stop-color="white" stop-opacity="0"/>
<stop offset="0.232154" stop-color="white"/>
</linearGradient>
<linearGradient id="paint3_linear_5101_78542" x1="24.6651" y1="86.2898" x2="36.8497" y2="86.2898" gradientUnits="userSpaceOnUse">
<stop stop-color="white" stop-opacity="0"/>
<stop offset="0.232154" stop-color="white"/>
</linearGradient>
<linearGradient id="paint4_linear_5101_78542" x1="24.6651" y1="112.85" x2="36.8497" y2="112.85" gradientUnits="userSpaceOnUse">
<stop stop-color="white" stop-opacity="0"/>
<stop offset="0.232154" stop-color="white"/>
</linearGradient>
<linearGradient id="paint5_linear_5101_78542" x1="24.6651" y1="138.683" x2="36.8497" y2="138.683" gradientUnits="userSpaceOnUse">
<stop stop-color="white" stop-opacity="0"/>
<stop offset="0.232154" stop-color="white"/>
</linearGradient>
</defs>
</svg>
