<svg width="64" height="64" viewBox="0 0 64 64" fill="none" xmlns="http://www.w3.org/2000/svg">
    <path d="M16.8204 33.9122L27.905 8.93588C29.6759 4.9457 35.5173 5.04618 37.1425 9.09477L46.9881 33.6202C49.3432 37.9192 49.7384 43.1861 47.599 48.0068C43.8726 56.4032 33.8679 60.2662 25.2528 56.635C16.6377 53.0038 12.6746 43.2535 16.401 34.8571C16.5437 34.5356 16.6956 34.2208 16.8562 33.9128L16.8204 33.9122Z" fill="#C4C4C4"></path>
    <path d="M16.8204 33.9122L27.905 8.93588C29.6759 4.9457 35.5173 5.04618 37.1425 9.09477L46.9881 33.6202C49.3432 37.9192 49.7384 43.1861 47.599 48.0068C43.8726 56.4032 33.8679 60.2662 25.2528 56.635C16.6377 53.0038 12.6746 43.2535 16.401 34.8571C16.5437 34.5356 16.6956 34.2208 16.8562 33.9128L16.8204 33.9122Z" fill="url(#paint0_linear_4339_260206)"></path>
    <defs>
        <linearGradient id="paint0_linear_4339_260206" x1="46.8075" y1="55.4174" x2="16.5152" y2="19.8498" gradientUnits="userSpaceOnUse">
            <stop stop-color="#1493DF"></stop>
            <stop offset="1" stop-color="#3CCBF4"></stop>
        </linearGradient>
    </defs>
</svg>